HIERARCHY
ROOT joint_Root
{
	OFFSET 0.0 0.0 0.0
	CHANNELS 6 Xposition Yposition Zposition Zrotation Xrotation Yrotation 
	JOINT Hips
	{
		OFFSET 4.5925 91.4895 -427.239
		CHANNELS 6 Xposition Yposition Zposition Zrotation Xrotation Yrotation 
		JOINT Spine
		{
			OFFSET 15.7357 0.0 0.0
			CHANNELS 6 Xposition Yposition Zposition Zrotation Xrotation Yrotation 
			JOINT Chest
			{
				OFFSET 8.98455 -0.406207 0.0
				CHANNELS 6 Xposition Yposition Zposition Zrotation Xrotation Yrotation 
				JOINT Neck
				{
					OFFSET 16.3773 0.0 0.0
					CHANNELS 6 Xposition Yposition Zposition Zrotation Xrotation Yrotation 
					JOINT Head
					{
						OFFSET 6.45672 0.0 0.0
						CHANNELS 6 Xposition Yposition Zposition Zrotation Xrotation Yrotation 
						End Site
						{
							OFFSET 0.0 0.0 0.0
						}
					}
				}
				JOINT Shoulder_L
				{
					OFFSET 12.9942 -0.242716 4.98039
					CHANNELS 6 Xposition Yposition Zposition Zrotation Xrotation Yrotation 
					JOINT UpperArm_L
					{
						OFFSET 5.34809 0.0 0.0
						CHANNELS 6 Xposition Yposition Zposition Zrotation Xrotation Yrotation 
						JOINT LowerArm_L
						{
							OFFSET 24.3286 1.87007e-05 0.0
							CHANNELS 6 Xposition Yposition Zposition Zrotation Xrotation Yrotation 
							JOINT Hand_L
							{
								OFFSET 22.2916 0.0 0.0
								CHANNELS 6 Xposition Yposition Zposition Zrotation Xrotation Yrotation 
								End Site
								{
									OFFSET 0.0 0.0 0.0
								}
							}
						}
					}
				}
				JOINT Shoulder_R
				{
					OFFSET 12.9945 -0.242716 -4.98039
					CHANNELS 6 Xposition Yposition Zposition Zrotation Xrotation Yrotation 
					JOINT UpperArm_R
					{
						OFFSET -5.34813 0.0 0.0
						CHANNELS 6 Xposition Yposition Zposition Zrotation Xrotation Yrotation 
						JOINT LowerArm_R
						{
							OFFSET -24.3289 0.000322201 0.0
							CHANNELS 6 Xposition Yposition Zposition Zrotation Xrotation Yrotation 
							JOINT Hand_R
							{
								OFFSET -22.2915 -0.000108084 0.0
								CHANNELS 6 Xposition Yposition Zposition Zrotation Xrotation Yrotation 
								End Site
								{
									OFFSET 0.0 0.0 0.0
								}
							}
						}
					}
				}
			}
		}
		JOINT UpperLeg_L
		{
			OFFSET -2.19248 -6.46944 0.0
			CHANNELS 6 Xposition Yposition Zposition Zrotation Xrotation Yrotation 
			JOINT LowerLeg_L
			{
				OFFSET 39.0811 0.0 -1.23785e-05
				CHANNELS 6 Xposition Yposition Zposition Zrotation Xrotation Yrotation 
				JOINT Foot_L
				{
					OFFSET 40.9854 0.0 -1.26872e-05
					CHANNELS 6 Xposition Yposition Zposition Zrotation Xrotation Yrotation 
					JOINT Toes_L
					{
						OFFSET 11.7543 0.0 0.0
						CHANNELS 6 Xposition Yposition Zposition Zrotation Xrotation Yrotation 
						End Site
						{
							OFFSET 0.0 0.0 0.0
						}
					}
				}
			}
		}
		JOINT UpperLeg_R
		{
			OFFSET -2.19251 6.46944 0.0
			CHANNELS 6 Xposition Yposition Zposition Zrotation Xrotation Yrotation 
			JOINT LowerLeg_R
			{
				OFFSET -39.0811 -0.00228153 -0.0401928
				CHANNELS 6 Xposition Yposition Zposition Zrotation Xrotation Yrotation 
				JOINT Foot_R
				{
					OFFSET -40.9854 0.0 0.0
					CHANNELS 6 Xposition Yposition Zposition Zrotation Xrotation Yrotation 
					JOINT Toes_R
					{
						OFFSET -11.7543 0.0 0.0
						CHANNELS 6 Xposition Yposition Zposition Zrotation Xrotation Yrotation 
						End Site
						{
							OFFSET 0.0 0.0 0.0
						}
					}
				}
			}
		}
	}
}
MOTION
Frames:	6
Frame Time:	0.0333333
0.000000 0.000000 0.000000 0.000000 0.000000 -0.000000 -1.696480 87.689500 494.589000 -89.887000 4.400140 174.529000 15.735700 0.000005 -0.000001 111.784000 84.784200 -112.666000 8.984550 -0.406207 -0.000000 1.955880 3.913500 -1.828320 16.377300 -0.000001 -0.000001 -7.083400 -1.376670 -0.550588 6.456720 -0.000001 -0.000000 -13.845500 -4.219060 -0.938348 12.994200 -0.242716 4.980390 -88.811100 -3.415360 -70.794200 5.348090 -0.000007 -0.000001 -68.797300 36.162400 21.558300 24.328600 0.000019 0.000005 22.608800 -6.677620 -105.601000 22.291600 -0.000001 0.000005 -1.300170 5.452220 -4.719620 12.994500 -0.242716 -4.980390 89.113700 5.660650 -81.086100 -5.348130 -0.000001 -0.000004 -57.180500 41.689700 -23.600900 -24.328900 0.000322 -0.000009 -3.738390 1.240450 -108.327000 -22.291500 -0.000108 -0.000004 14.369800 5.437460 -4.195900 -2.192480 -6.469440 -0.000000 179.203000 -4.933510 -28.648900 39.081100 -0.000007 -0.000012 -0.396680 0.385680 45.806400 40.985400 -0.000006 -0.000013 1.140990 -1.111220 -73.064600 11.754300 -0.000000 0.000003 -0.000264 -0.002335 -16.664900 -2.192510 6.469440 -0.000001 171.777000 6.132300 -178.658000 -39.081100 -0.002282 -0.040193 0.108137 -0.104449 45.115900 -40.985400 0.000008 0.000006 2.959530 12.011200 -48.681000 -11.754300 -0.000006 -0.000006 -0.146209 -0.547197 -39.692000
0.000000 0.000000 0.000000 0.000000 0.000000 -0.000000 -2.182790 85.436300 490.216000 -90.148500 5.148180 175.317000 15.735700 0.000005 -0.000001 107.316000 84.738900 -108.385000 8.984550 -0.406207 -0.000000 2.313290 3.180340 -2.200500 16.377300 -0.000001 -0.000001 -6.515870 -1.365090 -0.937587 6.456720 -0.000001 -0.000000 -12.421800 -3.894950 -2.019700 12.994200 -0.242716 4.980390 -89.420800 -1.668740 -70.856400 5.348090 -0.000007 -0.000001 -63.622200 34.744000 19.380000 24.328600 0.000019 0.000005 23.023600 -7.100100 -106.217000 22.291600 -0.000001 0.000005 -0.973754 5.451280 -4.684540 12.994500 -0.242716 -4.980390 88.933900 6.719500 -80.962900 -5.348130 -0.000001 -0.000004 -54.553400 43.233600 -23.317200 -24.328900 0.000322 -0.000009 -2.267930 0.635535 -105.621000 -22.291500 -0.000108 -0.000004 14.008300 5.446900 -4.530880 -2.192480 -6.469440 -0.000000 178.624000 -4.384520 -27.977300 39.081100 -0.000007 -0.000012 -0.548391 0.415357 52.860700 40.985400 -0.000006 -0.000013 0.859890 -2.605570 -80.038800 11.754300 -0.000000 0.000003 -0.000745 -0.005547 -16.776800 -2.192510 6.469440 -0.000001 171.117000 3.789590 178.477000 -39.081100 -0.002282 -0.040193 0.145767 -0.100773 54.740400 -40.985400 0.000008 0.000006 0.317732 9.629440 -45.730400 -11.754300 -0.000006 -0.000006 -0.071621 -0.367819 -31.809900
0.000000 0.000000 0.000000 0.000000 0.000000 -0.000000 -2.612140 83.753600 486.378000 -91.804900 5.544810 175.668000 15.735700 0.000005 -0.000001 101.151000 84.623000 -102.993000 8.984550 -0.406207 -0.000000 2.824090 2.157310 -3.733800 16.377300 -0.000001 -0.000001 -6.526060 -1.309790 -1.121710 6.456720 -0.000001 -0.000000 -11.942200 -3.985620 -2.500930 12.994200 -0.242716 4.980390 -90.551100 1.583250 -70.816100 5.348090 -0.000007 -0.000001 -55.811300 33.201400 13.101100 24.328600 0.000019 0.000005 24.942700 -7.244250 -105.173000 22.291600 -0.000001 0.000005 0.029897 5.481970 -5.808150 12.994500 -0.242716 -4.980390 88.566600 9.264560 -81.165000 -5.348130 -0.000001 -0.000004 -54.266700 42.759000 -18.573800 -24.328900 0.000322 -0.000009 2.554960 -0.603151 -103.306000 -22.291500 -0.000108 -0.000004 12.529800 5.490450 -6.171690 -2.192480 -6.469440 -0.000000 176.495000 -4.325780 -26.370300 39.081100 -0.000007 -0.000012 -0.642904 0.428603 56.311500 40.985400 -0.000006 -0.000013 0.897765 -3.327930 -84.939800 11.754300 -0.000000 0.000003 -0.000943 -0.006749 -16.817200 -2.192510 6.469440 -0.000001 169.259000 3.649640 173.296000 -39.081100 -0.002282 -0.040193 0.202906 -0.093841 64.835100 -40.985400 0.000008 0.000006 -0.823372 6.197530 -41.625800 -11.754300 -0.000006 -0.000006 -0.023384 -0.185361 -24.153200
0.000000 0.000000 0.000000 0.000000 0.000000 -0.000000 -2.675150 82.978500 482.553000 -91.993700 6.031800 175.978000 15.735700 0.000005 -0.000001 99.902600 84.324900 -102.035000 8.984550 -0.406207 -0.000000 3.458180 2.029670 -4.321210 16.377300 -0.000001 -0.000001 -6.408090 -1.560590 -1.527210 6.456720 -0.000001 -0.000000 -12.231500 -4.720620 -2.417680 12.994200 -0.242716 4.980390 -91.172400 3.322420 -70.549300 5.348090 -0.000007 -0.000001 -50.825000 31.987900 2.965560 24.328600 0.000019 0.000005 31.113000 -7.332590 -101.943000 22.291600 -0.000001 0.000005 0.178331 5.513370 -7.081980 12.994500 -0.242716 -4.980390 88.352500 10.494500 -81.026500 -5.348130 -0.000001 -0.000004 -58.727000 40.340100 -8.347040 -24.328900 0.000322 -0.000009 2.068260 -0.438328 -101.953000 -22.291500 -0.000108 -0.000004 12.032000 5.519460 -7.337260 -2.192480 -6.469440 -0.000000 176.234000 -5.288260 -23.103600 39.081100 -0.000007 -0.000012 -0.685775 0.449551 56.755400 40.985400 -0.000006 -0.000013 1.038060 -3.081940 -88.400400 11.754300 -0.000000 0.000003 -0.001003 -0.007103 -16.828900 -2.192510 6.469440 -0.000001 169.276000 5.352420 168.600000 -39.081100 -0.002282 -0.040193 0.225278 -0.067675 73.061700 -40.985400 0.000008 0.000006 0.949286 2.346850 -46.585400 -11.754300 -0.000006 -0.000006 -0.022670 -0.181653 -24.000200
0.000000 0.000000 0.000000 0.000000 0.000000 -0.000000 -2.498090 83.123700 478.783000 -91.173800 5.302400 175.685000 15.735700 0.000005 -0.000001 95.620900 84.324000 -97.452100 8.984550 -0.406207 -0.000000 3.553440 1.177750 -3.695030 16.377300 -0.000001 -0.000001 -6.664020 -1.968220 -2.065060 6.456720 -0.000001 -0.000000 -11.976600 -4.659060 -2.889250 12.994200 -0.242716 4.980390 -91.296400 3.848640 -71.367900 5.348090 -0.000007 -0.000001 -51.651200 30.165300 -4.739760 24.328600 0.000019 0.000005 35.931600 -8.385190 -101.377000 22.291600 -0.000001 0.000005 -0.555719 5.527800 -7.697840 12.994500 -0.242716 -4.980390 88.183600 10.388000 -80.025000 -5.348130 -0.000001 -0.000004 -62.695200 38.124600 1.957880 -24.328900 0.000322 -0.000009 -6.079100 1.340140 -102.371000 -22.291500 -0.000108 -0.000004 12.724900 5.531530 -7.859070 -2.192480 -6.469440 -0.000000 177.376000 -5.648200 -19.047200 39.081100 -0.000007 -0.000012 -0.667972 0.480591 54.267600 40.985400 -0.000006 -0.000013 1.373500 -2.049250 -90.133200 11.754300 -0.000000 0.000003 -0.001032 -0.007271 -16.834500 -2.192510 6.469440 -0.000001 171.035000 9.059930 163.823000 -39.081100 -0.002282 -0.040193 0.241203 -0.052401 77.595500 -40.985400 0.000008 0.000006 2.703730 0.047751 -51.253000 -11.754300 -0.000006 -0.000006 -0.018725 -0.160124 -23.112900
0.000000 0.000000 0.000000 0.000000 0.000000 -0.000000 -2.228510 84.152200 474.891000 -90.022500 4.310940 174.992000 15.735700 0.000005 -0.000001 86.178400 84.561400 -87.495900 8.984550 -0.406207 -0.000000 3.080860 -0.670388 -2.614180 16.377300 -0.000001 -0.000001 -6.772300 -1.874650 -2.380390 6.456720 -0.000001 -0.000000 -11.944700 -3.347490 -3.268110 12.994200 -0.242716 4.980390 -91.107900 3.477770 -72.319200 5.348090 -0.000007 -0.000001 -56.461100 28.853200 -9.386250 24.328600 0.000019 0.000005 32.941600 -8.940270 -103.489000 22.291600 -0.000001 0.000005 0.868496 5.501440 -6.599610 12.994500 -0.242716 -4.980390 88.038800 9.882720 -78.716400 -5.348130 -0.000001 -0.000004 -64.233800 37.897900 9.573670 -24.328900 0.000322 -0.000009 -11.252300 2.806510 -103.822000 -22.291500 -0.000108 -0.000004 12.703400 5.542550 -8.362540 -2.192480 -6.469440 -0.000000 178.836000 -5.017880 -13.754800 39.081100 -0.000007 -0.000012 -0.562481 0.502268 48.238200 40.985400 -0.000006 -0.000013 1.503280 -1.698140 -89.949400 11.754300 -0.000000 0.000003 -0.131820 -0.193177 -16.675700 -2.192510 6.469440 -0.000001 173.965000 12.194300 159.401000 -39.081100 -0.002282 -0.040193 0.223809 -0.046723 78.055500 -40.985400 0.000008 0.000006 2.723440 -0.595330 -55.809500 -11.754300 -0.000006 -0.000006 -0.018002 -0.155957 -22.941400
